<svg width="60" height="60" viewBox="0 0 60 60" fill="none" xmlns="http://www.w3.org/2000/svg">
<circle cx="30" cy="30" r="30" fill="#111111"/>
<g filter="url(#filter0_i_15_2)">
<circle cx="30" cy="30" r="20.9934" fill="#3C3C3C"/>
</g>
<circle cx="30.0662" cy="30.0662" r="16.4238" fill="#313131"/>
<g filter="url(#filter1_i_15_2)">
<circle cx="30" cy="30" r="2.18543" fill="#888A24"/>
</g>
<path d="M56.4239 27.8146C56.4239 24.5794 55.7866 21.3758 54.5486 18.3869C53.3105 15.3979 51.4959 12.6821 49.2082 10.3944C46.9206 8.10681 44.2048 6.29215 41.2158 5.05409C38.2269 3.81602 35.0233 3.1788 31.7881 3.1788V5.84454C34.6732 5.84454 37.5301 6.41281 40.1957 7.51691C42.8612 8.621 45.2832 10.2393 47.3233 12.2794C49.3634 14.3195 50.9817 16.7415 52.0858 19.407C53.1899 22.0725 53.7581 24.9294 53.7581 27.8146H56.4239Z" fill="#C7B61E"/>
<path d="M27.8146 56.8212C21.2808 56.8212 15.0146 54.2256 10.3945 49.6055C5.77438 44.9855 3.17884 38.7192 3.17883 32.1854L5.84457 32.1854C5.84457 38.0123 8.15926 43.6004 12.2794 47.7206C16.3996 51.8408 21.9878 54.1555 27.8146 54.1555V56.8212Z" fill="#C7B61E"/>
<defs>
<filter id="filter0_i_15_2" x="9.00659" y="9.00662" width="45.9867" height="45.9868" filterUnits="userSpaceOnUse" color-interpolation-filters="sRGB">
<feFlood flood-opacity="0" result="BackgroundImageFix"/>
<feBlend mode="normal" in="SourceGraphic" in2="BackgroundImageFix" result="shape"/>
<feColorMatrix in="SourceAlpha" type="matrix" values="0 0 0 0 0 0 0 0 0 0 0 0 0 0 0 0 0 0 127 0" result="hardAlpha"/>
<feOffset dx="5" dy="5"/>
<feGaussianBlur stdDeviation="2"/>
<feComposite in2="hardAlpha" operator="arithmetic" k2="-1" k3="1"/>
<feColorMatrix type="matrix" values="0 0 0 0 0 0 0 0 0 0 0 0 0 0 0 0 0 0 0.25 0"/>
<feBlend mode="normal" in2="shape" result="effect1_innerShadow_15_2"/>
</filter>
<filter id="filter1_i_15_2" x="27.8146" y="27.8146" width="8.37085" height="8.37086" filterUnits="userSpaceOnUse" color-interpolation-filters="sRGB">
<feFlood flood-opacity="0" result="BackgroundImageFix"/>
<feBlend mode="normal" in="SourceGraphic" in2="BackgroundImageFix" result="shape"/>
<feColorMatrix in="SourceAlpha" type="matrix" values="0 0 0 0 0 0 0 0 0 0 0 0 0 0 0 0 0 0 127 0" result="hardAlpha"/>
<feOffset dx="5" dy="5"/>
<feGaussianBlur stdDeviation="2"/>
<feComposite in2="hardAlpha" operator="arithmetic" k2="-1" k3="1"/>
<feColorMatrix type="matrix" values="0 0 0 0 0 0 0 0 0 0 0 0 0 0 0 0 0 0 0.25 0"/>
<feBlend mode="normal" in2="shape" result="effect1_innerShadow_15_2"/>
</filter>
</defs>
</svg>
