<svg width="286" height="120" viewBox="0 0 286 120" fill="none" xmlns="http://www.w3.org/2000/svg">
<rect x="98.5" y="0.5" width="89" height="119" fill="#15151E" stroke="black"/>
<rect x="0.5" y="40.5" width="89" height="79" fill="#15151E" stroke="black"/>
<rect x="196.5" y="60.5" width="89" height="59" fill="#15151E" stroke="black"/>
<path d="M159.542 77.875H153.222V75.4531C153.222 74.6479 152.572 74 151.764 74H135.236C134.428 74 133.778 74.6479 133.778 75.4531V77.875H127.458C126.65 77.875 126 78.5229 126 79.3281V82.7188C126 84.8803 127.367 87.1023 129.761 88.8158C131.675 90.1902 134.003 91.0621 136.445 91.3406C138.353 94.4951 140.583 95.7969 140.583 95.7969V100.156H137.667C135.522 100.156 133.778 101.41 133.778 103.547V104.273C133.778 104.673 134.106 105 134.507 105H152.493C152.894 105 153.222 104.673 153.222 104.273V103.547C153.222 101.41 151.478 100.156 149.333 100.156H146.417V95.7969C146.417 95.7969 148.647 94.4951 150.555 91.3406C153.003 91.0621 155.331 90.1902 157.239 88.8158C159.627 87.1023 161 84.8803 161 82.7188V79.3281C161 78.5229 160.35 77.875 159.542 77.875ZM132.034 85.6734C130.551 84.6078 129.889 83.4211 129.889 82.7188V81.75H133.79C133.851 83.7238 134.142 85.4555 134.568 86.9691C133.65 86.6543 132.793 86.2184 132.034 85.6734ZM157.111 82.7188C157.111 83.6936 156.036 84.9045 154.966 85.6734C154.207 86.2184 153.344 86.6543 152.426 86.9691C152.852 85.4555 153.143 83.7238 153.204 81.75H157.111V82.7188Z" fill="white"/>
<path d="M239.11 84.895L235.06 78.8195C234.893 78.5696 234.658 78.3627 234.376 78.2191C234.094 78.0755 233.776 78 233.452 78H226.939C226.18 78 225.736 78.7683 226.171 79.3279L232.691 87.7105C234.432 86.2461 236.647 85.241 239.11 84.895ZM255.061 78H248.548C247.889 78 247.279 78.3111 246.94 78.8195L242.89 84.895C245.353 85.241 247.568 86.2461 249.309 87.71L255.829 79.3279C256.264 78.7683 255.819 78 255.061 78ZM241 86.4375C235.305 86.4375 230.687 90.593 230.687 95.7188C230.687 100.845 235.305 105 241 105C246.695 105 251.312 100.845 251.312 95.7188C251.312 90.593 246.695 86.4375 241 86.4375ZM246.421 94.7305L244.199 96.6796L244.724 99.4334C244.818 99.927 244.24 100.304 243.749 100.071L241 98.771L238.252 100.071C237.76 100.306 237.183 99.9264 237.276 99.4334L237.802 96.6796L235.579 94.7305C235.18 94.3804 235.401 93.7692 235.952 93.6974L239.024 93.2946L240.396 90.7886C240.52 90.5629 240.759 90.4516 240.999 90.4516C241.24 90.4516 241.48 90.5645 241.604 90.7886L242.977 93.2946L246.049 93.6974C246.6 93.7692 246.821 94.3804 246.421 94.7305Z" fill="white"/>
<path d="M43.1103 84.895L39.0597 78.8195C38.8932 78.5696 38.6575 78.3627 38.3758 78.2191C38.094 78.0755 37.7757 78 37.4519 78H30.9392C30.1804 78 29.7363 78.7683 30.1711 79.3279L36.6908 87.7105C38.4322 86.2461 40.647 85.241 43.1103 84.895ZM59.0607 78H52.548C51.8894 78 51.2789 78.3111 50.9402 78.8195L46.8896 84.895C49.3529 85.241 51.5677 86.2461 53.3091 87.71L59.8289 79.3279C60.2636 78.7683 59.8195 78 59.0607 78ZM45 86.4375C39.3046 86.4375 34.6875 90.593 34.6875 95.7188C34.6875 100.845 39.3046 105 45 105C50.6953 105 55.3125 100.845 55.3125 95.7188C55.3125 90.593 50.6953 86.4375 45 86.4375ZM50.421 94.7305L48.1986 96.6796L48.7242 99.4334C48.8179 99.927 48.2402 100.304 47.7486 100.071L45 98.771L42.2519 100.071C41.7597 100.306 41.1826 99.9264 41.2763 99.4334L41.8019 96.6796L39.5794 94.7305C39.1798 94.3804 39.4007 93.7692 39.9515 93.6974L43.0236 93.2946L44.3964 90.7886C44.5201 90.5629 44.7591 90.4516 44.9988 90.4516C45.2396 90.4516 45.4804 90.5645 45.6041 90.7886L46.9769 93.2946L50.049 93.6974C50.5998 93.7692 50.8207 94.3804 50.421 94.7305Z" fill="white"/>
</svg>
